<?xml version="1.0" standalone="no"?><!DOCTYPE svg PUBLIC "-//W3C//DTD SVG 1.1//EN" "http://www.w3.org/Graphics/SVG/1.1/DTD/svg11.dtd"><svg t="1608709953336" class="icon" viewBox="0 0 1024 1024" version="1.1" xmlns="http://www.w3.org/2000/svg" p-id="2633" xmlns:xlink="http://www.w3.org/1999/xlink" width="28" height="28"><defs><style type="text/css"></style></defs><path d="M363.411869 872.332983a72.682374 72.682374 0 1 0 72.682373 72.682373 70.298161 70.298161 0 0 0-72.754622-72.682373z m0-287.622793a72.682374 72.682374 0 1 0 72.682373 72.682373 68.636436 68.636436 0 0 0-72.754622-72.682373z m297.159645-433.05979a72.682374 72.682374 0 1 0-72.682374-72.682374 70.298161 70.298161 0 0 0 72.754623 72.682374zM363.411869 293.908446a72.682374 72.682374 0 1 0 72.682373 72.682373 70.298161 70.298161 0 0 0-72.754622-72.682373z m297.159645 578.424537a72.682374 72.682374 0 1 0 72.682374 72.682373 74.416347 74.416347 0 0 0-72.682374-72.682373z m0-287.622793a72.682374 72.682374 0 1 0 72.682374 72.682373 72.393378 72.393378 0 0 0-72.682374-72.682373z m0-290.801744a72.682374 72.682374 0 1 0 72.682374 72.682373 74.416347 74.416347 0 0 0-72.682374-72.682373zM363.411869 6.285653a72.682374 72.682374 0 1 0 72.682373 72.682373A68.636436 68.636436 0 0 0 363.33962 6.285653z" p-id="2634" fill="#d0d8e0"></path></svg>